<svg xmlns="http://www.w3.org/2000/svg" viewBox="0 0 32 32">
  <rect width="32" height="32" rx="6" fill="#14a800"/>
  <path fill="#ffffff" d="M20.3 7.9c-2.6 0-4.6 1.7-5.4 4.3L13 18c-.5 2-1.9 3.2-3.5 3.2-1.9 0-3.5-1.7-3.5-3.7s1.6-3.7 3.5-3.7c.6 0 1.2.2 1.7.4l.4-2.8c-.6-.2-1.3-.4-2-.4C6.1 11 3 14.3 3 18.5S6.1 26 9.6 26c2.9 0 5.2-1.9 6-4.8l1.7-5.9c.6-2 1.8-3.1 3.3-3.1 1.8 0 3.2 1.6 3.2 3.6s-1.4 3.6-3.2 3.6c-.7 0-1.4-.2-1.9-.5l-.4 2.8c.7.3 1.5.5 2.3.5 3.4 0 6-2.9 6-6.4.1-3.5-2.5-5.9-5.3-5.9z"/>
</svg>
